<mxfile host="app.diagrams.net" modified="2023-05-08T15:30:25.429Z" agent="Mozilla/5.0 (Windows NT 10.0; Win64; x64; rv:109.0) Gecko/20100101 Firefox/112.0" etag="R9m8MHveKHXpYa9zRwl9" version="21.2.6" type="github">
  <diagram name="Sivu-1" id="_K5P7OIp_1_fc9htklhr">
    <mxGraphModel dx="1323" dy="1872" grid="1" gridSize="10" guides="1" tooltips="1" connect="1" arrows="1" fold="1" page="1" pageScale="1" pageWidth="827" pageHeight="1169" math="0" shadow="0">
      <root>
        <mxCell id="0" />
        <mxCell id="1" parent="0" />
        <mxCell id="mQCYfwzK4HOE46UFKc1K-1" value="" style="shape=image;verticalLabelPosition=bottom;labelBackgroundColor=default;verticalAlign=top;aspect=fixed;imageAspect=0;image=data:image/png,iVBORw0KGgoAAAANSUhEUgAAA+MAAAKUCAYAAABv1OkdAAAAAXNSR0IArs4c6QAAAARnQU1BAACxjwv8YQUAAAAJcEhZcwAAFiUAABYlAUlSJPAAAHXdSURBVHhe7d3/c1v3fef7+z+13dvNbJs203bveo2mWEam4ZBSKIVkgohyUVkxTJuWEJORLodamwqc0kY5dxkzorw0rwiXoVzLsBUNmdW3ZZh7qavhcKihdgermZCzs+WMBz/szrwvPucLvn4AAiAOcD7A8zHzauMDfEDqEDg4L5yDz/nfBAAAAAAAtBRlHAAAAACAFqOMAwAAAADQYpRxAAAAAABajDIOAAAAAECLUcYBAAAAAGgxyjgAAAAAAC1GGQcAAAAAoMUo4wAAAAAAtBhlHAAAAACAFqOMAwAAAADQYpRxAAAAAABajDIOAAAAAECLUcYBAAAAAGgxyjgAAAAAAC1GGQcAAAAAoMUo4wAAAAAAtBhlHAAAAACAFqOMAwAAAADQYpRxAAAAAABajDIOAAAAAECLUcYBAAAAAGgxyjgAAAAAAC1GGQcAAAAAoMUo4wAAAAAAtBhlvEX+23/7b7K1tUUIIYQQQgghxPD8r//1v5ym1zjKeIv89Kc/lT/4gz8ghBBCCCGEEGJ4/vmf/9lpeo2jjLeIKuOhUEi2t7cJIYQQQkgH58MPP7R21q9cuSL3798nhDQp3/72t63Xlu5116p88MEHlHHTuGUcAAAAne3TTz+1dtYTiYQcHBwQQpqUl156yXpttdNXX31FGTcNZRwAAKA7UMYJ8SaUcTSEMg4AANAdKOOEeBPKOBpCGQcAAOgOlHFCvAllHA2hjAMAAHQHyjgh3oQyjoZQxvMePnwo0Wi0Jfn1r3/t/FQAAIDWoIwT4k0o42gIZTxPlXG1LlqRX/ziF85PBQAAaA3KOCHehDKOhlDG8yjjAACgk1HGCfEmlHE0hDKeRxkHAACdjDJOiDehjKMhlPE8yjgAAOhklHFCvAllHA2hjOdRxgEAQCejjBPiTbq8jG/Lys8mZGLiutx3lmgd7sja6pzEJ9R9pyRxIyWbBxnnxgY09HiHsrO2KnNxNWZCphI3JLV5IEeO2lmT1bm4NWZiKiE3UptynF/dRRnPo4wDAIBORhknxJt0cRnPyEYiLMFAQAKBmKw4S0tlNmZlpEfdpyTBPhlP7h1Zhks19HiZDZkd6SkfEwhK33hS9vSDZGN2RHrKxgQk2DcuSf2gmvm9jH/99dctC2UcAAB0Mso4Id6ka8t4ZiMh4aBbUCuU8XRSxnrV7dnSO5aQ1MNd2d1ak4XLQ07JHZDp9TpKbUOPl5bkWG/2NlWixySReii7u1uytnBZhpxSPzC9Xlbi08kx6VWPmS35Y4mUPNzdla21Bbk85JT6gWmp51cv5fcy/vjx47Ii61XGxsa0y70IZRwAALQaZZwQb9KdZTyzLtMDqqgGqxwZz8jtK3YJ7h1LZitxoYKj6ufmZNtZWl1jj5e5fcUu1b1jkiweVPCBwjmZKx4kV6zS3ytj5YMkEQ5av8e5okH1oYznQxkHAACdjDJOiDfpwjK+L7fGQ9kyGpTo4oLEVNHVlfHMisSsojsgcd0XynOFd1gSm86yahp6vIysxOziPKAflCv4wwW/RGYlZhf7gbj2u/C5gj+ckFp+dR3KeD6UcQAA0Mko44R4k64r4+lsUQ1li2gotiLpbAWvWMbXp6Vf3dY7KSlnUbF9WYyqsQGJzD91llXR0OOty3S/WtYrk/pBsr8YtcYEIvOSGzXdby3rrTxIompMICK1/Oo6lPF8KOMAAKCTUcYJ8SbdVcbT2fIdypbQULZ8W2dvVy7jmeSYXXKrHD0+svQWaOjxMkkZs36/Kkffy0p+RpJjakzx0fJiR5f8o1DG86GMAwCATkYZJ8SbdFEZT8tiVJ3yHZLxW/vOssplfDMxbBXaQKz82+SuWu7jaujxNhMyXOH3yym7z6YkhtV/B6Tyj6rlPiLXr1+XqakpbSKRiFUO/YoyDgAA0ByUcUK8SdeU8c1Ze4K00GRK8pOIU8ar/epDQ0PWH0aX06dPW+XQryjjAAAAzUEZJ8SbdEUZz806PjwjG0WX86KMV/vVKeO1hTIOAAA6GWWcEG/S+WU8syEzqngGw5IobuJZlcv41mzYKqvNKuMNPd7WrIQr/H45ZWV8S2bD6r+PX8a3t7fl0aNH2rz11ltWOfQryjgAAEBzUMYJ8SYdX8ZzJbj/b+UnExMyUZTzMmAV2QE57yy77l4LbCVmj6sy4Vpq0r6s2ODMhrOkioYez/2woMoEbqlJ+zJlgzOSGxVTY6pN4JaSSesyaoNSy6+uwwRu+VDGAQBAJ6OME+JNOr6M544215jckeKNGRlUy4LjcstZVOypzEfsMdFFd0K4Khp6vA2ZGVTLgjKuHyRP5yP27x5dlNyomUFrWbDyIImoMYGo1PKr61DG86GMAwCATkYZJ8SbdHwZzxw8k93d3Qq5IW9ZpfQtueEse37oDMwdPe6VK7dLT2/Pqvta3Y09nnu0vPfK7YKJ51wVrnXuHi3vvSL6H1V+bfJ6UcbzoYwDAIBORhknxJt0xQRulVX+zrhyPz5gldZgOFEy8VtaVmIh+7bRpdwR6aM09Hj34/ap9JrvvKdXYhKybhuVpeJBEh9Q/66ghBMbxSXevdZ69rbR4kF1oYznQxkHAACdjDJOiDehjKsyW2mCtExKJq3imi3Jfa/K1bllWb6RkEtDPdYyVZBny76WfV+ul37/3NXQ42UkNWkX9UCwT169OifLyzckcWlIetQyVbjLB2V/1KRd1LO39716VeaWl+VG4pIM9Tg/Pzxb8bvrtaCM50MZBwAAnYwyTog3oYxbhbXKbOXp23LVLcsFCfa9LvNls7Mr7mNWmKm87sdT0nL7qlu+C5It56/Plxz5LpC+fTVXvvPJlvPX50uOzNePMp4PZRwAAHQyyjgh3qTLy/iOrC0vy/LyWvZ/VZORg2cPJWXdd1XWtp5L7qvlZdRj/ge52F/tsmH1PF6e+v77w5Qasyyra1sF32+vInMgzx6mrDHLq2uyVdOgo1HG86GMAwCATkYZJ8SbdHkZ90h6QV4L9Mv0uvPfHYgyng9lHAAAdDLKOCHehDLebP99VSZCQQmNLsm2s6gTUcbzoYwDAIBORhknxJtQxpsuI082t2o67dxklPF8KOMAAKCTUcYJ8SaUcTSEMp4PZRwAAHQyyjgh3oQyjoZQxvOhjAMAgE5GGSfEm1DG0RDKeD6UcQAA0Mko44R4E8o4GkIZz4cyDgAAOhllnBBvQhlHQyjj+VDGAQBAJ6OME+JNKONoCGU8H8o4AADoZJRxQrwJZRwNoYznQxkHAACdjDJOiDehjKMhlPF8KOMAAKCTUcYJ8SaUcTSEMp4PZRwAAHQyyjgh3oQyjoZQxvOhjAMAgE5GGSfEm1DG0RDKeD6UcQAA0Mko44R4E8o4GkIZz4cyDgAAOhllnBBv0n1l/PC5bK2tyvLysiynHsqzg4xzQzUZOXj2UFJqzPKqrG09l0PnlsY09niZg2fyMKXGLMvq2pY8r22QPHuYsv+9q2uyVdOgo1HG86GMAwCATkYZJ8SbdFEZP5QHc69LXzAggUBhemToclKeVOrk6dtydainZExAgn2vy/xGLUW+REOPl5bbV4ekp2RMINgnr89vZKu9Xvr2VRnqKRkTCErf6/PSyK9eiDKeD2UcAAB0Mso4Id6kS8p4RjYSYQk6BfbVnybkxvKy3EhcypXVYGRetp1752TWJX4maN9+5oLE55Zl+UZCLrllOhiR+bJBVTT0eBlZj59xfvczciE+J8vLNyRxyS3nQYlofonMelzOWB88BOXMhbjM1fLvrQNlPB/KOAAA6GSUcUK8SXeU8e15iVjFNCSxlbSz0JFOylivuq1XrtwuPlx8Pz5gF9dwouRIclpWYiH7ttEl2XeWHqWhx7sfl4Hs8kAwLImSw9nplZiErNtGZal4kMQH1L8pKOFEyZHz9IrEQvZto8WD6kIZz4cyDgAAOhllnBBv0hVl/Ol8xCq6gXNz2qPBKzFVTgMyOLPhLFFSMlmhpFv2l2TUKvgRmX/qLKuqscdLTfZav1vvldua09H3ZWnUPtIeKR4kverf23tF9D9q1D7SHpmXmn51Dcp4PpRxAADQySjjhHiTrijjhztrsro8J3MruiqekeSYKsElZXxjRgZVYQ2Oyy1nUbGnMh+xx0UXazjC3NDjbcjMoFoWlHH9oPwHDdHF3BH1jZlBa1mw8iCJqDGBqNTyq+tQxvOhjAMAgE5GGSfEm3TRBG56hw9mJGwdkR6Q+H1nobISs0vucEI2nUWl3KPW/dPrzpIqGnq8FYlZpXlYEpUH2UfB+6clN8o50j9ceZBzlL5favnVdSjj+VDGAQBAJ6OME+JNurKM72/8kywvz0k86k6C1iMjs8Xfrd5MDFuFNjCW1JwebsvdJ7biLKmsocfbTMiw9fuNSbLyIOc+sWx1txZIYlj9d0DGKg/K3afar642vNevX9fmxz/+sVUO/YoyDgAA0ByUcUK8SVeW8VzpdfLKa+/L6lbx9bdrKdoNlfF6Hq+saGtUKeOVf1RtZXxoaMj6w+hy+vRpqxz6FWUcAACgOSjjhHiTrizj95fsS5sVXVasZKZ1yjhlvNZQxgEAQCejjBPiTbr+O+Mih/Jgxr0Gef4SYZRx+w+jNr66vPXWW1Y59CvKOAAAQHOofT/KOCHND2VcydyWK9aEZgXl1J1wLTwrW86iUuvT/dZ96prAra7HcydwC8ts5UHSr+6jmcAtXHmQTPer+zCBWzNCGQcAAJ2MMk6IN+mCMp6Rg2e7srW2Kms7zqIy+SPFuQLrltzeSUnZS0rsy2LUHlN0je9KGno8tzT3yqR+kOwvRq0xhdcMd0t9b+VBElVjar5GejnKeD6UcQAA0Mko44R4ky4o4/mSO1B07bICuSPjBdfzzqxITHfJM1fu9iqXHSvU0ONlZCUWzC6r9Lvnby+8jFlmJWafdj8QF/2Pcm6vcpm1o1DG86GMAwCATkYZJ8SbdMVp6k8Xztvls3dMkvk52hwZ2Ug43xnvvSK3c1cDy8jtK/Z1v3vHklI8rGDMuTnZdpZW19jjZW5fsa8jrvndMxsJ5xrp52SueJDz4UKvjJUPkkTYLvDnigbVhzKeD2UcAAB0Mso4Id6kO74zXlBAg32vS/zmmmztqlPXb0r89T67BJfMpm5JL0rUKrtB6Xs9LqsPd2V3a00WLrvXJw/JZKr0Wt47sqZmas+m7LT4hh4vLYvRgt999aHs7m7J2sJlGepRYwISmkxl63yx9GLU/ncF++T1+Ko8tP69C3LZnT0+NCllP6oOlPF8KOMAAKCTUcYJ8SbdM4Fb+q7ER9zLmJWkZ0iufrZXVmiVwwcJGXFKb1GyJXc8qRvjTrqmn6m8/sfLOnwgCe3vni3140nZ0w+SB4kRp+QXJ9g3Lkn9oJpRxvOhjAMAgE5GGSfEm3RPGbdk5GAzJTcSUzIxMSETUwm5kdqUg6N66eGOrK3OSVyNmZiSxI2UbFYcdF+uT7wl4d4qlw2r6/Fch7KztipzcTVmQqYSNyS1eaAv7wUOd9ZkdS5e37+3BpTxfCjjAACgk1HGCfEmXVbGW8SajK3yDOidgDKeD2UcAAB0Mso4Id6EMt5s/+OOfHA2JMEzcVlvwhFov6KM50MZBwAAnYwyTog3oYw33b6kFm/K1qHznx2KMp4PZRwAAHQyyjgh3oQyjoZQxvOhjAMAgE5GGSfEm1DG0RDKeD6UcQAA0Mko44R4E8o4GkIZz4cyDgAAOhllnBBvQhlHQyjj+VDGAQBAJ6OME+JNKONoCGU8H8o4AADoZJRxQrwJZRwNoYznQxkHAACdjDJOiDehjKMhlPF8KOMAAKCTUcYJ8SaUcTSEMp4PZRwAAHQyyjgh3oQyjoZQxvOhjAMAgE5GGSfEm1DG0RDKeD6UcQAA0Mko44R4E8o4GkIZz4cyDgAAOhllnBBvQhlHQyjj+VDGAQBAJ6OME+JNurKMZw6eye7ubjbP5CDjLDzSoTyve0w1jT3e4XM1Zlee1TfI/vc+O5Cm/OpZlPF8KOMAAKCTUcYJ8SZdVMYz8iR5VSKneiQQCBSkR06NJuTOXoWamnkiycthOREsH3M37dynHg09nvrdL0v4RLBgTEB6To1KosovkXmSlMvhExIsGBPoOSWjibvSyK9eiDKeD2UcAAB0Mso4Id6kS8p4RjYSYaeUBuXEQEQuTkzIxMWInOpxS+qIzG6UFvJtWRoNObeH5Gy0eEyw77Lc2nfuWpPGHm97aVRCaky2tIfORmVi4mL+Q4Vgn1zWD5LRkP24PaGzEs3+ey9GTkmP9ThB6bt8S+r61UtQxvOhjAMAgE5GGSfEm3RHGd9MyLBVQkMSS+4Vn6p9+EBmwvYR52BkPluX87bnI3aBD8UkWXjkvGBMaDJV86nfDT3e9rxErKPopb/7oTyYcT5gCE1KqniQzEecx4slpfhHzUjYebzJ4kF1oYznQxkHAACdjDJOiDfpijK+mRi2imlwdEl/NHh7Ts6pUhuIyPxTZ5ncl/iAWhaU0SXdkWdnTHBUdDeXa+zx7scHqvzu2zJ3TvOY9+MyUOV32547V+Uxa0MZz4cyDgAAOhllnBBv0hVl/P51dYr2oFz4aMtZUmpFYqq8BoYlseks2pqVsLVsTJLaA8hbMhu2i3BspYYjzA09nrssIGP6QdmHDVu3B2MruaPm7rLAWFJ/1N79XYIxqeVX16GM50MZBwAAnYwyTog36aIJ3KrIHRkPy6zb11didqEdTojbz0vdGrdPBR+c2XCWVNHQ42k+JCh1a9w+VX1wRnKjYmpMQIYrD5Jx61T1QanlV9ehjOdDGQcAAJ2MMk6IN6GMS0bWp+1TwQPn5nLfGc8dXY4uVjyV2z39PRBbcZZU1tDj5Y6mR2Wx8iDn+/CxbHVX8kfTo5UHSWLYvk+1X317e1sePXqkzVtvvWWVQ7+ijAMAADQHZZwQb9L1ZTy9EnNmKi+e0KyWol1PGW/o8cqKtkbZfWop2rWV8aGhIesPo8vp06etcuhXnVrGZ2dn5euvv25JAAAAFMo4Id6kq8t4emVc+qzTtYMSTmwUfb+aMk4ZrzWtLOM/+clPtMu9yCeffOKsTQAA0M0o44R4ky4t4xnZmD/vHBHPFvGZB3Lo3OKijNsb3g8++ECbH//4x1Zh8yvK+PFDGQcAAAplnBBv0n1lPLMnn02esSc9C4Tk/HzxEXFXJjlmldVAZF5yVzsrsTEzaN2ndzLlLKmsocfLJGXM+j0LL7lWYmNGBtV9eifFHpWR5JgaE5BI5UEyM6ju0ys1/OpaTOCWD2UcAAB0Mso4Id6ku8r44QNJjPTYpTh4RiZvp50bNFKT0qvu1z8t686iYvnSG85NwV5FQ4+XksletaxfpvWD8iU/PCu5UZO91rL+yoOckl8we3ydKOP5UMYBAEAno4wT4k26p4yn78p02L50WCA0KotPjrjA9v6iRK3Cek7m3CnWixxdlIs09Hj7shhVywJyTj9IW7z3F6PWssLZ4Ysc+cHA0Sjj+VDGAQBAJ6OME+JNuqSMb8qsU8SDZyal2gHxvH1ZGrXHDGSLbml1TyfH7EI7EJf7zrLqGnu8/aVR+5T6gWxxLh8kY1aBH5B48SAZtSamG8gW+7JBkhyzC/xA0aD6UMbzoYwDAIBORhknxJt0RRnfno/YhfbEBfnoP+/K7m6lPJODgu6a2ZhxJkcLyfnEF7KjZnnLHMjmzXE548zCHl0sbfaH8tx5vOcls8I19HiZDZlxJlsLnU/IF/YgOdi8KeNnnA8YoovZil0oIxszzmRwofOS+GLHmqAuc7ApN8ed78sHo1L2q9eBMp4PZRwAAHQyyjgh3qQLyvi6TPfbZfboDEti0xlmyciTxVFn1vXSBCU8fbekBCsrEnPuUz5TeSOPlx31ZFFGQ7ox2SIenpa7+kGyOBrSjgkEwzKtHVQ7yng+lHEAANDJKOOEeJPOL+Pb1yV68qScrCkX5CPNhGaHW6uSmIrKWes+gxK5GJeFe3tlp5rbPpepk31yIlj5smH1PZ7jcEtWE1MSPWv/roORixJfuCd71QfJ1mpCpqJn7X/fYEQuxhfkXvVBNaGM50MZBwAAnYwyTog36Z4J3FpKTcYWlPFbzn92IMp4PpRxAADQySjjhHgTynizZZ7IP02FJdgbk5V9Z1kHooznQxkHAACdjDJOiDehjDfdtiz89LIkj7p0muEo4/lQxgEAQCejjBPiTSjjaAhlPB/KOAAA6GSUcUK8CWUcDaGM50MZBwAAnYwyTog3oYyjIZTxfCjjAACgk1HGCfEmlHE0hDKeD2UcAAB0Mso4Id6EMo6GUMbzoYwDAIBORhknxJtQxtEQyng+lHEAANDJKOOEeBPKOBpCGc+HMg4AADoZZZwQb0IZR0Mo4/lQxgEAQCejjBPiTSjjaAhlPB/KOAAA6GSUcUK8CWUcDaGM50MZBwAAnYwyTog3oYyjIZTxfCjjAACgk1HGCfEmlHE0hDKeD2UcAAB0Mso4Id6ku8v44XPZ3X0mBxnnv6s6lOe7u3Xc/yiNPd7hczVmV57VN8gas/vsQJryq2dRxvOhjAMAgE5GGSfEm3RxGU9LcqxXAoFhSWw6i3QyTyR5OSwngoHsfd30yKnRhNxNO/epR0OPl5EnycsSPhEsGBOQnlOjkqjyS2SeJOVy+IQEC8YEek7JaOJu9l9/PJTxfDq1jP/93/+9Vchbkb29PecvBwAA/IYyTog36c4yntmT5HifU1KrlfFtWRoNOSU2JGejEzJxMSKneuxiG+y7LLf2nbvWpLHH214alZD1u/ZI6GxUJiYuSuRUj/04wT65rB8koyH7cXtCZyU6MSEXI6ekx3qcoPRdviV1/eolKOP5dGoZb+XP+vWvf+385QAAgN9QxgnxJl1XxjN7dyQ+4hRZK5XL+PZ8xC7soZgk9wpO8D58IDNh+yh1aDJV86nfDT3e9rxErKPoIYkl9wpuO5QHM2Hn8SYlVTxI5iPO48WSUvyjZiTsPN5k8aC6UMbzoYwfP5RxAAD8izJOiDfpnjKeeSL/FH9d+pzTw4N9fc7R5kpl/L7EB9TtQRld0h15npNzanxwVHQ3l2vs8e7HB+zfd3RJcyR7W+bOaR7zflwGqvxu23PnqjxmbSjj+VDGj5+lpSXrVPVWBAAA1IcyTog36Z4yvpmQYaugnpDw5ZuydbgiMfXflcr41qyErdvHJKk9gLwls2G7CMdWajjC3NDjucsCMqYflH3YsHV7MLaSO2ruLguMJfVH7d3fJRiTWn51Hcp4PpTx4+fSpUva5V5EPTcAAEDtKOOEeJPuKeNby/LzxKps5mYhP6KMr8TsQjuckEpfKb81bp8KPjiz4SypoqHHO+J3VG6N26eqD85IblRMjQnIcOVBMm6dITAotfzqOpTxfCjjxw9lHAAA/6KME+JNunMCN0v1ops7uhxdrHgq92Zi2L5PbMVZUllDj5c7mh6VxcqD7CP+gVj2X6Tkj6ZHKw+SxLB9n2q/ejqdrphYLGYVG7+ijB8/lHEAAKBQxgnxJpTxCmW8lqJdTxlv6PHKirZG2X1qKdq1lfGhoSHrD6PL6dOnrWLjV5Tx44cyDgAAFMo4Id6EMk4Zr4gyXlso48cPZRwAAP+ijBPiTSjjlPGKrl+/bpUkXSKRiFVs/IoyfvxQxgEAgEIZJ8SbUMYrlPFMcswqq4HIvDx1lpXamBm07tM7mXKWVNbQ42WSMmb9jhGZrzxIBtV9eifFHpWR5JgaE5BI5UEyM6ju0ys1/OpaTOCWD2X8+KGMAwDgX5RxQrwJZbxCGZfUpPSq2/unZd1ZVCxfesOzW86yKhp6vJRM9qpl/TKtH5Qv+eFZyY2a7LWW9Vce5JT8sNTyq+tQxvOhjB8/lHEAAPyLMk6IN6GMVyrj+4sStW4/J3PbzrIiRxflIg093r4sRtWygJzTD9IW7/3FqLUscG5O9D/qqA8GjkYZz4cyfvxQxgEA8C/KOCHehDJeqYxni/DSqH3d74Fs0XWvTu5KJ8fsQjsQl/vOsuoae7z9pVH7OuID2eJcPkjGrAI/IPHiQTJqXUd8IFvsywZJcswu8ANFg+pDGc+HMn78UMYBAPAvyjgh3oQyXrGMi2Q2ZpzJ0UJyPvGF7ByqhQeyeXNczlhlNyjRxbR955xDeb67K7vZPFf3L9DQ42U2ZMaZbC10PiFf2IPkYPOmjJ+xy30wupit2IUysjHjTAYXOi+JL3ayv5X6UZtyc/yMXe6DUSn71etAGc+HMn78UMYBAPAvyjgh3oQyXqWMq1L7ZHFUQtb9ShOU8PTdkhKsuI+rm6m8kcfLjnqyKKMh3ZhsEQ9Py139IFkcDWnHBIJhmdYOqh1lPB/K+PFDGQcAwL8o44R4ky4u45/L1MmTcvLkBfnoiEnMDrdWJTEVlbPW/QclcjEuC/f2yk41t6nH7ZMTwcqXDavv8RyHW7KamJLoWTXmpAxGLkp84Z7sVR8kW6sJmYqetcacHIzIxfiC3Ks+qCaU8Xwo48cPZRwAAP+ijBPiTbq4jHtJTcYWlPFbzn92IMp4PpTx44cyDgCAf1HGCfEmlPFmyzyRf5oKS7A3Jiv7zrIORBnPhzJ+/FDGAQDwL8o4Id6EMt5027Lw08uSfHL8U8H9jDKeD2X8+KGMAwDgX5RxQrwJZRwNoYznQxk/flpZxr/88kvr+dGKfP31184zEgAAc1HGCfEmlHE0hDKeD2X8+GllGY9Go9rlXmRvb895RgIAYC7KOCHehDKOhlDG86GMHz+UcQAA/IsyTog3oYyjIZTxfCjjx0+nlvHf/va38vvf/74lAQDAK5RxQrwJZRwNoYznQxk/fjq1jP/d3/2ddrkX4fvpAACvUMYJ8SaUcTSEMp4PZfz4oYwfP5RxAIBXKOOEeBPKOBpCGc+HMn78UMaPH8o4AMArlHFCvAllHA2hjOdDGT9+KOPHz89+9jO5evVqSwIA6C6UcUK8CWUcDaGM50MZP34o48fPmTNntMu9CACgu1DGCfEmlHE0hDKeD2X8+KGMHz+tLOOffPJJS7K6uuq8ogEA7UQZJ8SbUMbREMp4PpTx44cyfvy0soy3KufOnXNe0QCAdqKME+JNKONoCGU8H8r48UMZP346sYyPjIzI3t5eS8K12gGgMso4Id6EMo6GUMbzoYwfP5Tx46cTy/iPfvQj7XIvop4XraKK/8OHD1sSPmQA0AyUcUK8CWW8kx1uyc2rERkM9UggEJBA8IT0nb0kc3f2JOPcpVGU8Xwo48cPZfz4oYwfL+pvpZ4brci1a9e0v4MX+cUvfuFsFQGgcZRxQrwJZbxT7a9LPBy0S3igR0InT0rfCfe/Q3J+fuNYhZwyng9l/PihjB8/lPHjpZV/q1ZuMyjjAJqBMk6IN6GMd6R9uTUesop3MDwtd9POYjmUrYVRCVlHycMyu+ksboAq43/yJ38iQ0NDvkwri0lfX592uRfhZx0/3/3ud7XLvUgrf9Yrr7yiXW5yOvVv1crn+6lTp7TbSEIIqSc9PT3WzrratxwYGCCENCn/6l/9K+u1pXvdtSruBwKU8WbZnpNz1hHwczK37SzLycj69IC1Me29crvho+OqjKs/ml+jnti6HVMvEgwGtcu9yLe//W3tci/Syp/1N3/zN9rlXuTf/bt/p13uRdTOi265F+nt7dUuNzknTpzQLvcirfxbtXKb8dd//dfWa7kV+da3viV//Md/3JLotvuEEEJIPVHvJ9/85jdbkm984xva38FPoYw3ydP5iFW2A9FF2XeWFdmYkUF1e++kpJxF9VJlXO286mYl9kO+/PJL7Y6pF/nxj3+sXe5FRkdHtcu9SCt/VqeeOq4uzaVb7kXUp6u65SbnBz/4gXa5F1Ezt+uWexG2GcfPz372M/mHf/iHluQ//sf/KEtLSy3JnTt3rPevVkT33ulV4vF4S6L+XrqfT46fVColsVjMOl39yZMnhHRE1OnZuvcYL6L2dXW/g5pHRr22dK+7VkW9z1HGm+jWuP3d8MGZDWdJqRWJWUfOhyXR4KnqqoyrUxp0333wQ/7Tf/pP2heCF3njjTe0y71IK79r2sqf9eabb2qXe5HXXntNu9yLvPrqq9rlXuT06dPa5Sbnhz/8oXa5F/nbv/1b7XIvwjbj+GnlNqOVH+C1cptx/vx5a14GrxMOh7U/34uon6XmSWhFbt68ae1rtCL379+X//pf/2tLotunUvnNb35j7ft9/vnn8l/+y38hpCNy79497bbEi6j3Ld3vMDMzY722dK+7VsWdE4Iy3hRPZT6iinZAIvNPnWWlNiUxbN8ntuIsqhNlPB92rI8fyvjxQxk/Xijjxw9l/Phhm3G8tHKbceHCBe1yL9LKbcbExIS89957ZVGTuqoPO9TrfGpqqim5deuWtpyYnt/97ncti+7nd0JUSW5F1IdLuteBF6GMd41ainZtZVx9od/9DkFp1Ju4Gq879c0P+eUvf6l9IXiRVu48tXKnsJU/KxKJaJd7kbNnz2qXe5FWnmatJurSLTc53//+97XLvUgr/1ZsM46fVm4zWnlkl23G8dLKbUYr30s6dZuhvrKjPghtRdSHDOoDhVaklV97UttC3b/Xi6jXl9pueJ1Wvo5bOeGzWoerq6tluXjxovV31PWZVkV99Uv1O8p4U7SujOuW+yV/9Ed/JH/+53/ekvzZn/2ZdrkX4WcdP536s4g54fl+/LTyZ6mJ6XTLvUgnbjNauf46NbyOjx9+Fml31CRuus7ip1DGm6J5ZVydQlQ47X1h1CfCf/VXfyUffPABIYQQQgjp4Kgj5mpnfXh4WN59911CSJPyF3/xF9ZrS/e6a1XUV2Eo402zL4tRu2hHF7VzqWe5ZTwo47ecRXVS321Qp1wAAACgs7nfKU0kEtrvnBJCGot7je92UrPKU8abqFWzqVPGAQAAOh9lnBBvQhnvQEdeZ3x9WvrV7ce8zjhlHAAAoPNRxgnxJpTxTrQ9J+esI9/nZG7bWZaTyXbxAaus9165nf2vxlDGAQAAugNlnBBvQhnvSPtyazxkFe5geFru7LmV+1C2FkYlZBX1xk9RV1QZVzM4nj9/nhBCCCGEdHC++93vWjvrPT091qW7CCHNyZ/+6Z9ary3d665VUQdYKePNlr4tk2fs744HAj0SOnlS+k64/x2S8/MbDR8VVxYXF8uuP2hy1OzwAwMDVtR1XnX3IfVHrUt3vap1rLsPqT+Dg4O59aq7nTQWd52q9au7ndQftq3ehG2rN2Hb+rfWNc1VQfjRj35kzZyursOs1oe6/vPJ7L6kWq4bVy3uOmXb2rywDfAm7dgGqJ+pXl+621qdr7/+2ml6jaOMFzrckptXIzIY6rFLePCE9J29JHN39o5VxDtROp22PhFSuXTpkrMUx3X9+vXcelWnuKE51KeY7no9PDx0luK43HXKV3Ca59GjR7n1qi6fguZQlx5116tax2gO9+iQOvOv06n3ju3tbev0VPXaVJetVf9+9W93n1tu1PWR1am0qqTv7e1pT7WtFHV/93HUeN19SP1ZWFjIrVf1v3X3IfUnGo3m1uvjx4+192l2xsfHrZ/XKfvJlHE0hDLuDcq4Nyjj3nDXKWW8eSjj3qCMe6MTy3ijpVtd//jLL7+U+/fv113AC0MZ9yaUcW/SjjLuzsfQKf2DMo6GUMa9QRn3BmXcG+46pYw3D2XcG5Rxb5hcxktLt/s90FaV7kqhjHsTyrg3aUcZV1GvyU75EJAyjoZQxr1BGfcGZdwb7jqljDcPZdwblHFvmFDGC0u3eo/1S+muFMq4N6GMe5N2lXH353bC9pwyjoZQxr1BGfcGZdwb7jqljDcPZdwblHFv+KmMm1a6K4Uy7k0o496kXWW8k05Vp4yjIZRxb1DGvUEZ94a7TinjzUMZ9wZl3BvtKOOlpVv9bWst3ep91S+lu1Io496EMu5N2lXG3deJHz4IPC7KOBqi3gxffPFFK+qNEM2hdhTc9UoZbx71HHXXK2W8edx1qiY4QnOokuGuV1U00Bzqgw13vVLGm0d90KnWqVcfyKkP/ust3WqmZRNKd6Wo3/mFF16wooqO7j6k/qjnhLteKePNi/qQy12vrSzjKu4HAWo7YTLKOAAAANqmG0s3IeR4cc92MP0sMso4AAAAPNdo6U4kEpRuQkhROuVUdco4AAAAmqbW0q2iTm+ldBNCGsnAwIC1HTH5VHXKOAAAAOqm5uBQ38GndBNC2hH3VHW1DTIVZRwAAAAVUboJIX6Me6q62iaZijKOBh3K891d2d19JgcZZxHqZK/DZzWuwMzBs+z6zq7z58wGrnX43F4/2dS+ijJy8KzeMd3l8Lm9fmp9nloyB/LM+ls8zz7LUZW7rmp5ArrP8WcH2WcuXLltY8VUfx429BzvUPrS/efyL/74j+WPs/nf/8Uf1li6n8mTjQ3Z2Pid7KTLd6C7L2nZ+Z1aH7XlSfY1rn2c9I78zrrPk+zzVXN718d93m3I73bSmtv1Se/8zl73T7L7tJrbuz7Pntjr53c7ktbdrk3+OV/x+dykqG2R2iaZeqo6ZRz1yTyR5OWwnAgGJBBw0yOnRhNy1+wrC7RcOjkmvdn1N5zYdJbope8mZPRUT8H6DkjwRFguJ5+wQ56Vvjsnl8InJFiwfgKBoJwIX5abW5V2wdNyNzEqp3rKxySfsFbVhxRPkpclfCJYsH4C0nNqVBJ39io/79J3JTF6SnoKxgSCJyR8OSmsVp2MbCTC9nM3tuIsK5d5kpTLpc/xnlMymribfSYjNdmbXy/axKR87VZ5jnfBm1lNR7r/6F/KN//y38iLBesnEPi29AxE5O9X/j/tTvFB+p5cjw2X7SP0X7gmv3qsuX/X5K5c+37hOqmeNz8uGf/4V3LtQn/ZtnU4dl3u8WFH9nm3Kf947YL0l76nD78ps6nKBfvxr67Jhf7S/athiV2/V0fp7Nw8W5+X2HDpe0+/XLj2j7JZ8Xn3WH6l/VvE5Pq92j8gqSfq8mpqm2XqqeqUcdRhW5ZGQ86LMSRnoxMycTGSKzTBvstya9+5K6rIyF5yXPqcnZVqZTyzHpcz1v2yG7LsDtDFiQmJ5nbKe2RkrnqR73TplZiErHWR3YkOnZVodv1MTETzO9jBPhlfKd2xzsh6/Iy9DrM7MwORi8Vjekaku1drQUHMPsdCZ6PZ9VPD8y6zLvEz9joMnhiQyMXs3yKa/+CuZ2ROuvvZWi6zPi0D1jrNplIZ316S0ZCzDp3n+MWI+4FHUPou35Lu3uxuyWzYXhcn+k7KyZO6TMnnzr1d20ujzrbDfY5flIj7oWd2u3G5Q97M6jm9XM1griZDso50z/xU3hn4G3t99LwsP3jtoly8+JoM57atw3LtTumO9QP5xYWXi8e8MZLbKQ++EpNPdgrv3035jXwY6Zf+/sp5pWDdvn+3YGz6M5n6nrttPSUjb2TX62v5Dzx6wjNyt+hndVsey8dvOs879cHPyBvZ5+obMuKW7OArEvtkp2xc+rMp+Z67f3VqRN64eFFeyxXPHgnP3C0b0015/PHb8orzHFMF3HreFbyee8Lvy52yQp6Wz6a+l9u/OmX9LQq2Gz1hmSl8bjcp7qnq58+fd7Z8ZqGMo2bb8xH7BRaKSXKv4DDX4QOZCdsvtNBkKrsrj4oye3InPlL06XbFMp5JyaS1Ex7Mvik8KDjNUpV5p4QGIzK/7SzuNvsrEuvVrZ+s7HpOxpwPjkKTkip4UmZSk866y74pPCgYVTAmGJmXbl2tspmQYbV+AiGJFX2QUfi8G5Wloq6SkdSks+6yO4bFqzUpMed5HOnaJ6vG/i0Zd0q2FW0Z35b5iLNtjSWleLM7I2FrRykkk4VP8K6TXY/WeojKYq39eXteIs66iyULz/Q4lAczzgdRJdsNvyst3UNDQ7WVbu13unfkk7ftchMcniw+op3elOtu8VGv9dyYA3nw4Yi97l5+U65vFhT1Zyl5b9h+Hr/8TpIjjro8/ljefFk9J1+WNz9+XHBbWpLvuH+L9yRVcLpvevO6MyYoIx8+KBjTXUnfjMlL6nkXHJb3io6CP5ZfXfm+/Vw9eVW+KBhzkE7KO866G34vVXDKf1o2r78pL1uPNyIfPigY003ZyT4fX1LrJ/uavTBXfPZFwev55ORnRa/ndPIdZ92V/C0KthvBkQ+LthvNinuqutoWmoYyjhrdl/iAveEaLd4Lt23PyTnrBVi6kw5bRp78U1xe73M+HQz2SZ+zI16pjO8vjdo7NgPx7NovlZHbV+xTMwfi5bd2g8xKrMr6ycrclitWWe/NlhVnmezL0qj9N9Cut9yYAenS1Srr0/3W+gmOLmmOuG7IzKD9vC3qjvtLMmqVG/16y9y+Yn0lo+LfquukZcX64CdbBmOvWetTW8bvx+0j5xW2q9tz56r8rbqE++HR4Ez22Vmb+/GBKuttW+bOqedyhfe6Nmtu6a4Q9UGP9byrUEZ2rsvb/f1yeuTv5XZu+Rdy9aS93i58VH4UMv+YF+Sjrj06XikP5MMR58OKtz+RncLbdj6SC9a29aRc/aJguZNcES0tm12U5DsvWevuu9liWHZ7+rpE1foJfF+uFRyR3fnogr3/oF1vabkZsx/z5NUvSm7rjuzMOe9LL8Xkpu509Mez8rfq9qLX8458dMEp6br1lr4pMavg65/Lx43azqnt3qeffupsLc1BGUdttmbtN9LAmCS1RwvypwrGVrr5KE0lm5IYtteP+13mlZj678pl/Na4vVEbnKmwi3lr3H4zGU505em/T1d/LhPRs3JyqvQEVJe7zguLo3sUbVAqr1Z7vR/1Xf7O9D/k/1mKW18/+T+TuiKSX6fRwsOQ7nOxYiFy1/uwdOVqLeHOFxHKPjHVVy3U+tSV8a3ZsH3bWLLg6G0Bd7scjEm3bnYz2XVZtI7cSe4qTojnvlcFZEz/ZpZb78Hs36Rdq1VXul988cWywq3ScOmukN9+OGL/+9/8uPaj2L953zmjJirXtd8l/Y2877wHvvmxN98bNTX5MwrekWTpuvvkbfu20+/JncLluXwib1vb1uKy2U35+E317w/I6ffuaG5PyjtWAXxJ3knml3/ytv0+rx+Tjbvev3+tK78C4K6fl95Jam8/OPitfDii1mtQ3v7EXeY+F0/Le3cK75uP+7jfv9b8rwA8fvzY2h6aeKo6ZRy1cXcYqxS/I8tjV9uS5Z8nZHUzPwty9TKuK5IljvyApMvljnIHZfyWsyx3CrZuQifbkQWoi2U2Zpz1d07mCs4430wM2+us8pP1yALUNdKLElU7LO5p0FXK+FEf2NXy4VKnc8/kCCduS/LyUNFXgPQTDq5IzLq9ygdDR3641DztLN2V4pab1+byR7ifPTliVuSP37TXe5XycmQB6sY8vi5Rpyy++XH5GQV3rzmnWb/5cdltdtwPOQISvd6dH3K4Hx4Fvv9e2XeY059Nykl1W9ER3PxkemUT5bk58sOlzo67DahWmsvuc/eafN9aZ2/KxyX3dfOb9519heh1T76uok5VV2cKmYYyjprkCkp0seLpkEfvkKNQ9R1tdye7X6bXnUVlatip7GLpxai9Q917RW67e+PuTnb/tFRerUd/8NRNrMs+ba3JzfjrzqSDwWzx2SgqOO4Hcf2Vn6w1FMtusCmz1vwaA9nXtbMGK5bx/AcYRWchFKnhQ7uOti+LUfvfHwxm12vPKXviwMIJGQMhOT9f8HzNfYhZ5TvmNXxoVy9Vure3t61TKOst3V9++aUnpVsft6h8VyY/S8vmP5bONh2UV340JZ8Ufic8m9xO9mtzxadZF+ToYtltSctnkyetdVLpe7TuBxjaU7Cd1FKcOjrpO3LNnZPg1avyy8/WZWNjXT6bjckZa7KxHgm/f6eg/LlHcNVzvOBxivKxvKmeq116xsFnk9+11mflI+N35L3T9vMudx/3bILvTspnZfd3UsOHdseJqaeqU8ZRk1qKNmW8PtXLSS1FmzJeSWYj4UxuVTJpWC1FmzJexH2e2jkh4XhKnhcfajziuWyjjOdnqR+eKSiHFct4LUW728t4Siats1+yZaZk4kD1vfy7085kbMGwzLpPu1qK9jHK+HFLtzrVUreT2bq4Zfy0RN8OW2caqEs9vXaxeCZlNSvy+wWzqddStCnjJXk8J69Z71MvyztJ/VHtho5QdmPSj2Tx0in7+VWY7wzKxOKjkqOwtRTt7i7j+UnxXpM5zSUJc2ccqLiv51qKtsdlXG131bb10qVLzhbZDJRx1IQy3nyUcW9kNmZlxNlhtL6T6yy3UMbrtC3XJ+xLmxVepizYNy6FE61Txo/mnuIfDCdko/DDDMp44/77Hfm/1CXJzl4uej7muZOxBaTXncWxSWW8sHR/8MEHVulWlw0rLdwqqnS/9NJLEo1GfVS6K8UtISpBGZ4suZ7ws5TMvOrMpl6wQ00Zrz9fXLWPipfOSl8YyngNefwruRp2zt7IXYbvDRk55VymLPiK/N2HhUfGKeNH566875xtEHwlKjOfPbJnnE/vyN3FyxLO7mNZZyOpdeSjMq5i4qnqlHHUhDLefJTx5kvfnnSuy15+KSgLZfxYMnt3ZNq5jGHh5d8o40dwL1NYeITWRRn31NP5iL1+3ddznWX8E6d0f/XVVx1WuivlM5n8rv2cqrjD7M6kXDArMmW83rjrucLs804o40clPxN96aXfrMuU/eOkDDtnH7ydu9Y4ZbymPP5Y3n7FKdwlefnVD+X6e/brOfcVCp+UcbX9Vdtjtc02BWUcNcnNWJvdAX/qLCu1MTNo3Sd3BAJVVS8n7iWkCi/LVSKTlDH1NwlEZL7SH6VrHMqDufP2NbCzOzdnJm8XHxF3bczIoLpP76RUXq1HP9e7mnu5rUC2WG7Zi45+7WckOabGBCTSdU/Wfbk1bl+D/Qc/X7Nn+i7Mjbfs59tbN5xlz51r5teyzmrYTnS70g/XKmw33SPdVukeH5G/Uff566D8peayYYWl+9133zW0dFdKfnKryhOt5ScNcyfASl+P2ut55EP5bdn97dx577R1n8rfQ+2iJN9xTgOufqm3o9dZWq478yaMfPhbze0dni+uOqdL/63Mak6nVnkw48x5lHtuut93Lp5hvSi5S6KNyIe/1dzeLUlvyu3ZKXntB/3Sb13O8JLMLNtHyd3vlec+BLrznpxW6+yldyRZ+BgFqWU7cdyYeKo6ZRy1SU3a1wmuOPFVfscx7O6ho6rqZfypzEfs2ytO3uQWy+C4uJOFd6XMniTH++zT0Uonayr1dF4i1v0qT97kFstgbgr27nP4/JkcVFyJ7hkZ+Vnqc0cfK07w6JbGgpntu0b+6HVtyR+xTU32WssqToyXK5b5D0a6Sebgmew+TMnynScVX/P7i87On1PGDw9/JWMn1DrrlfCl/JHuwmt1/+Gf/pU95t/+a/lOSelWM5jrdgA7J/lyV/lI647MvWbfJzcbtVsuK07elH/c4fd/o7m9u+IWmaMuH5ebKbzixHhusSy8xFQXpZYjrW5JDL4tn1jL3MtyFV8xoPoYUhzNpc1++6GMqHUWeE3mKnzA5H64FHz7E+3tzYia7FJ9YGrSqeqUcdRmf9H5lLD4kkZ57kQ61Wb/RqGjTtt1L9nTe+W2dkfz6ALUBTJPZHHUPuqoTgGevqs9Hl5gXab71XrvlSu5KdYL1fAhSEdzX8eV1k9WbltQ8PWI9WnpV8sKZ64vVMOHIJ3rqaz+XM3wXSHnB6znW2DgvLPsutx3RuaK5Lm53FcCihz5IWlny60fzb/fPtL9/8rPztvfJf3rl/qd0v3n8s1/rZ6LAfk//vxfFh3pHhkZsUp3/DV7TLUZrDs5udPJKxZA9xTrgiOLO3PymhoTCMvMg8L7unGv91xtButuSf7Mgopl0M1nk/JdtV5fislN3SW2aihAHZ1aZvB2PygqOGKbmy08dlP7YcjRH4J0ftI7v5ONJ8+0tx08mHGuSlH4vMtvF2I3dRMS1vAhSJPinqqeTh+1T+gPlHHUaF+WRu3vjgxk23bp/nY6OWbvFA7EczuSqO7I79C6pwMHswWmdHuS2ZAZ6808KKNL3VrF86f/BkLnZb5oVqzK7sft8hOMLpadyp67jnZwVLpztWayz0vn+3ea9aNu35hx5oYoeq3fl/iA/XyMlj9Zc2OCo0vd+8FRJRW/M561vySj1vcdCy6FlpOW5Jh95Hwg3qVb3e05+ZFad4ETcvbq/130nW51VOQPv/Et+Tcvqtv/rfzFn/xhrnT/8OQJ+bYaF4rK3FrJtbpz133Ofx+665Lb0f6+vFcwY7qbx9ejTrkpLIg78tEFe9txcvKzsoKTG3PyqnxRclvXJffBxbC8/xvN7UX5Qq6eVPcNZgtM6Vch0nLH+d5u8MJH3Vkadz6SC9Y28iWJXtd9VeSxXI++VL6O3NPbdbOFp+/Ie9ZXNap/n7+jkzvT5Yr8quxDoMfy8Zv2JI4vvflx0fPOnZQw+NqcPC5YrpK+8559HfIjvprRjCwsLFhlXF3RwgSUcdQsV1TUqcCJL2RHfbExcyCbN8edSbN0O+Ko5OgJrfI728Ez43Jz88D6EORw5wtJnHdK6MC0lO2jd4lMatL5jviATH2+Xfw93JI8L7zkUTopY9bR36CcGb8pm9b52Iey80VCzqtJtrKPqfvAqWtszuYuC6fWz0Nn5R0+fyg3Lw9ZlzpS24BYyfTVuQ/kgmdk/OamfZr74Y58kXC/y68rlKhaxgs//Aidl8QXO9b3yTMHm3Jz/IwzU7Dmw7oOVPSd7lzpfln+8t+8aK+fF1+Qv/zmN+Rf/OEfyDezRfw7PUHp+Wv1vAvIiXP/Xm7dLyjduZ1tNRHRNVl+pI7+pGXn7ry8/T3nwyjNzmT3JPve844zY3pPWC4v3pUdtUOuZlKef1u+52wfRj58UDQut7MdeFlevbYsj9RkWiVjygtlF8Y92l3jKdC5DzKC35O3552/xbNHsnztVXnZWt8nrWvC68Z2ftJy59qwsy3Mrp/Zz+znXfa2Z48+k9m3v+fcNizvF03EVlDSv/e2zN/dsT5AevZoWa65Vws4OSmf6c5G6Iq4HwJlt5EXZuVL5wj5sydfynxunY7Ih6VnweQ+zAzK996el7s76nn5TB4tX5NXX7YfT/dhXbOjtvWqjJtyqjplHHXIyJPFUWfHujRBCU/f1U+aBa2jy3hW+m5u9uqyhEZl8Um3lpt9WXS+f1hLSntO+u60UzjLExpdlK5drY7CWenLEuyTsUXdd3QLrutclpCMasegehnPKvwqRmlq+mqGWfSlu/g73W7sI93fkZMv/Y19pLssQXklOif3NDvU6XtzcsHZOSxNcHhSflVhMqiuSXpTrr/9SoXXc3ZH+52bmg8r0nJv7oJTEMvHDE/+qos/4ChI3TNKP5ZfTTqFsywvy4W5e56XG3/nsdx8xymIuvSckZ/e1HwI9PhXMulcvqssL1+QuXvd+gGHnfSd961LmGnXT09YrqX0p7A//pU7g315Xr6g3x57EfW1I/U+YcKp6pRx1O1wa1USU1E5e/KknDw5KJGLcVm4t8eOdp0+n1Lr76Rc+OiImZcye3JvIS4XI4PW/U+ejcpUYlW2Co/2dp2UvDtgr79aMvW5M6xAZu+eLMQvSmTQvs/Z6JQkVrecmayhjr6uJqYketZZj87zzj6ToJKM7N1bkPjFiAxa6/6sRKcSstrdT9bqPp+y16/uSZpzKFurCZmKnrXvOxiRi/EFuVd27T5zlJbu8+fPH1G689/pdidSy59enpbN27My9caInO5Xs/6elpE3pmT29mb1kvJsXRavTRTMFPyGTM3eLr6udldHrddfyrVLBev10jVZdI4i6sccyLP1Rbk28Zr8oJ6/RRflNx9GrOdb/zuf1LFOSp/jP5DXJrJ/i/UK3+ntuqgzWwqfd/breeLaoqwXXe6sJM5s4W+MnLb/Jj947egx3ZSSbWSt6ye9eVtmp96QkdP2uB+8NiHXFtfta5W3KO6p6tevX3fedfyLMg4AADzR3NJNCCGEHB2TTlWnjAMAgGMpLN3qSASlmxBCSDuj3mfUe47fT1WnjAMAgJqUlm41W22tpfvTTz+ldBNCCGlJEomE9V7k91PVKeMAAKAIpZsQQojJcU9VVxOB+hllHACALqZO4au3dI+Pj1O6CSGE+DovvPCC9f7l51PVKeMAAHSBRku3mpWW0k0IIcS0qPcw9b7m51PVKeMAAHSQRku3+n4dpZsQQkinxD1VXU0q6leUcQAADKS+1/3o0aMjS7eKOlWP0k0IIaTbot7/1Hujes/0I8o4AAA+RukmhBBCGot7qrqa58SPKOMAAPgApZsQQghpbtT7o3rf9Oup6pRxAABaqJ7Srb7XPTAwQOkmhBBCGox7qrofUcYBAPAApZsQQghpf/x8qjplHACAY6B0E0IIIf6NKuHqPfjSpUvOO7d/UMYBAKhBaekeGhqidBNCCCEGRL0v+/FUdco4AAAFKN2EEEJIZyUajVrv2+r93U8o4wCArqQr3S+++GJZ4VahdBNCCCHmxq+nqlPGAQAdTZXu7e1t64243tL95ZdfUroJIYQQw6Pey9X7vN9OVaeMAwA6AqWbEEIIIZXinqqeTqedPYf2o4wDAIxSWLo/+OADq3SrGcxLC7eKrnQ/fvxY+yZNCCGEkM7NwsKCtW+g9h38gjIOAPAlt3R/9dVXNZXul156yfrUm9JNCCGEkNL48VR1yjgAoK0qlW7dDOaUbkIIIYQ0GnW2nNqf8Mup6pRxAEBLNFq63333Xat0qxnMdW+shBBCCCG1xD1VXV1JxQ8o4wCApmqkdI+MjFC6CSGEEOJp3FPV1QSvfkAZBwA0pBmlmxnMCSGEENLKvPDCC9a+iR9OVaeMAwCqonQTQgghpFOi9k/UPosfTlWnjAMALJRuQgghhHR63FPVz58/7+wBtQ9lHAC6DKWbEEIIId0c91R1tU/UTpRxAOhQpaVbfQJM6SaEEEJIt2d8fNza//n000+dvab2oIwDgOEKS7f6/hOlmxBCCCGkch4/fmztF7X7VHXKOAAYgtJNCCGEENKcqFPV1T5UO1HGAcBnSkv31NRUzaVbnW5F6SaEEEIIqR4/nKpOGQeANlLXuKy3dKs3D0o3IYQQQkjjUWcNqn2sS5cuOXtlrUcZB4AWoHQTQgghhPgr7T5VnTIOAE3UaOlOJBKUbkIIIYSQFsY9VV3tu7UDZRwAGqC+1/3o0aMjS7eK+tSV0k0IIYQQ4q+oMxDVvlq7TlWnjANAFZRuQgghhJDOjNpPU2crtutUdco4AGRRugkhhBBCui/RaNTav1NfNWw1yjiArkLpJoQQQgghbtxT1dV+YatRxgF0pHpKtzo9aWBggNJNCCGEENJlUft8an+wHaeqU8YBGI3STQghhBBCjpN2napOGQdghNLSPTQ0ROkmhBBCCCHHzsLCgrUPqfYzW4kyDsBXKN2EEEIIIaSVadep6pRxAG2hK90vvvhiWeFWoXQTQgghhBAv89JLL1n7na08VZ0yDsBTqnRvb29bM1VSugkhhBBCiB+j9j3V/mgrT1WnjANoiuOU7i+//JLSTQghhBBC2hb3VHW1D9sqlHEAdSks3R988AGlmxBCCCGEdEReeOEFax+2VaeqU8YBaOlKt7psWGnhVlGlW33PRl0Wwi3djx8/1m7kCCGEEEII8WPUASS1b9uqU9Up40CXc0v3V199VVS6dTOYU7oJIYQQQkinxj1V/fz5886esrco40CXaLR0v/vuu5RuQgghhBDSFVGnqqv9Y7Xv7DXKONBhjlu61Qzmug0TIYQQQgghnR73VHX1VU2vUcYBQzVSukdGRijdhBBCCCGEVIjaR1b7z604VZ0yDvhcM0o3M5gTQgghhBBSW9xT1b1GGQd8gtJNCCGEEEJI+9OqU9Up40CLUboJIYQQQgjxb1QJV/vily5dcvbgvUEZBzxSWrrV904o3YQQQgghhPg/av/c61PVKePAMRWW7uvXr1O6CSGEEEIIMTzqakNq//3Ro0fOXn/zUcaBGlG6CSGEEEII6Y604lR1yjhQorR0T01N1Vy61YuW0k0IIYQQQojZUfvzan/fy1PVKePoao2UbjW7IqWbEEIIIYSQzo57qno6nXbaQ3NRxtEV1AuI0k0IIYQQQgipNQsLC1ZHUJMxe4Eyjo7SaOlOJBKUbkIIIYQQQkguXp+qThmHkWot3SovvPACpZsQQgghhBBSdwYGBqxO4cWp6pRx+JqaTE1dToDSTQghhBBCCGl13FPVVR9pNso4fIHSTQghhBBCCPFb3FPVX3zxRae5NA9lHC1F6SaEEEIIIYSYFNVLVD9p9qnqlHF4op7SrSZTU9/FoHQTQgghhBBC/JZ3333X6i3NPlWdMo5joXQTQgghhBBCOjnuqernz593WlBzUMZRE0o3IYQQQgghpFvjnqquelGzUMZRpLR0Dw0NUboJIYQQQgghXR3VeVQH+vTTT53mdHyU8S6lK91qhsDSwq1C6SaEEEIIIYR0c7w4VZ0y3uFU6d7e3qZ0E0IIIYQQQsgxok5VV2cNNwtlvEO4pVudNlFv6f7yyy8p3YQQQgghhBBSJc0+VZ0ybpjC0v3BBx9QugkhhBBCCCGkBVF9SvWsS5cuOe3seCjjPqUr3WoG89LCraIr3Y8fP9Y+gQghhBBCCCGENJZmnqpOGW8zt3R/9dVXNZXul156SaLRKKWbEEIIIYQQQloc91T1//k//6fT6BpHGW+RTCajLd26y4ZRugkhhBBCCCHEf1FnLqvOpvrdcVHGW+T999+3TmkozHe+8x35/ve/LxcvXpTp6WlZWVmRVColT548IYQQQgghhBDis2xsbFg9Tp3hfFyU8Rb56U9/WnYEnBBCCCGEEEKIefnnf/5np+k1jjLeIqqMq1nP1WnqhBBCCCGEEELMi/rKMWXcMKqMq++IAwAAAADMpAo5ZdwwlHEAAAAAMBtl3ECUcQAAAAAwG2XcQJRxAAAAADCbWWV8e0FGT56UCx9tOQvqszl3Xk5mx1fOlHzu3LfI4ZasJqYketa+32DkosQX7sle1cvBHcrWakKmomftxx6MyMX4gtyrPqgmlHEAAAAAMJs5ZTx9V6bDQQkEAjKc2HQW1mNfFqMBa3zlxGTFubcrs5eUWEh334AEw9NyN+3csVBmT5KxkHZMIBiWae2g2lHGAQAAAMBsRpTxzJNFGeuzi7hKY2V8Xab71fhheX9tV3Z3dXkuRZdbz2xIwvkAIHR+Ttaeq1szcrB5U8bP2Mt7x5JSXK0zspEIS1D9rqHzMrdmP2bmYFNujp+xl/eOSfIYfZwyDgAAAABm83cZz+zJncTr0he0S/ixyvjTeYlYRXhSUs6io+wvjdrleWBa1kvPLk8nZaxX/T4DEr/vLFP2l2TU+n0HZLp8kCTHeq1/w0DRoPpQxgEAAADAbD4u41syG7bLdyDQI0NXP5Nfjtn/3VAZT01Kr3qsyLw8dRZVlz+t/dzctrOs2Pp0v3V7//S6syQ7ajFq/87n5kQ7an1a+tXt/dmC7yyqF2UcAAAAAMzm4zK+KYnwCQlfmpMvduyTx1dijZfxrdlwrjgfbt2UuDux2tlohcnYUjJpHfnul4KuXSSTHLOLd3hW3CnlUpP2ke/Cgl4kk5QxNSYQltnG5qGjjAMAAACA4XxcxjOSKSnIxynj7tjBSERCVhkuTrBvXJKFjXx/UaLWbVVK88aMDKr7BMfllrUgfzQ9XHmQzAyq+wRl3B5UN8o4AAAAAJjNiAncXI2XcbcAq+J8RsZvbsqB1bsPZWdtLj85XOF3wzcTMqyWaWZYzym7z6Ykhu2fE6s8qIb7iFy6dMkq3LqcPXvW+v8AAAAAADN1RxnPnRoeyhZgzTTmucnYCr4f3uYyPjQ0ZP1hdDl9+jRlHAAAAAAM1iVHxpWMHDw/yP5fPXcyttwEb5RxAAAAAIBHuqiMH2ElZj12YDiRrctZ7qXQAmOSrNTgy8r4U5mP2L/jWOVBNZXxavjOOAAAAACYjTLuKi3j2Xods4r2sFT8cbfG7euQ58bU8jveknHrOuRVHvcIlHEAAAAAMFtXlPHt61E5GeopugRZqY2ZQbuMRxdl31qSv855paPcm4lh6/ZgbCV3+rt7CbXAWFJ/Srx7ND0Yk5VKB8+PQBkHAAAAALN1x5Hx1KT0qgIcOCfu/GxFMusyPWA/dmTe+sa45X58wC7bo0tOQS+0LXPn1JigjC4V3Ho/LgNW2R6VwsWu7blzVR6zNpRxAAAAADBbl5ymnv+edjA8Iw8OncVK5oksjoas2wKhSUkVHq3enpeIdUp5SGLJvYIj3YfyYCZsn6JeOiZb0ucj9qXSQrGkFF66/PDBjISdx5ssHlQXyjgAAAAAmK3DyvjnMnXypJzMZupzZ5EjszErIz32+EDPKYlcnJCJixEZOOFcY7xnRGY3ygvy5tyI9KjbA0E5EY7KxMRFiZzqsccE+2Rcd6m0zbnczwqeCEt0YkIuRk7lHqdvfEU0o2pGGQcAAAAAs3VYGXcnXdPPVJ7ZuyOJUbcUu+mRU6MJuVN4CLtIRp4kL0vYLe1Oek6NSuJu5UqdeZKUy+ET9tFzNz2nZDRx91hFXKGMAwAAAIDZjCrjh893ZXd3V54dVCrOh/J8NyXvDhxx2bDMgTzLPs7u7jOp+FAaR/98jcPn1pjdZ5WvcV4vyjgAAAAAmM2oMl6LzMaMDB/jsmEmoIwDAAAAgNk6q4z/j1sy3tsjI3+/3vBM5SagjAMAAACA2TruyPjhYeFU6Z2JMg4AAAAAZuu4Mt4NKOMAAAAAYDbKuIEo4wAAAABgNsq4gSjjAAAAAGA2yriBKOMAAAAAYDbKuIEo4wAAAID/PXz4UK5evUoMzC9+8Qvnr+gdyriBKOMAAACA/62urlr77cS8RKNR56/oHcq4gSjjAAAAgP9Rxs0NZRxalHEAAADA/yjj5oYyDi3KOAAAAOB/lHFzQxmHFmUcAAAA8D/KuLmhjEOLMg4AAAD4H2Xc3FDGoUUZBwAAAPyPMm5uKOPQoowDAAAA/kcZNzeUcWhRxgEAAAD/o4ybG8o4tCjjAAAAgP9Rxs0NZRxalHEAAADA/yjj5oYyDi3KOAAAAOB/lHFzQxmHFmUcAAAA8D/KuLmhjEOLMg4AAAD4H2Xc3FDGoUUZBwAAAPyPMm5uKOPQoowDAAAA/kcZNzeUcWhRxgEAAAD/o4ybG8o4tCjjAAAAgP9Rxs0NZRxalHEAAADA/yjj5oYyDi3KOAAAAOB/lHFzQxmHFmUcAAAA8D/KuLmhjEOLMg4AAAD4H2Xc3FDGoUUZBwAAAPyPMm5uKOPQoowDAAAA/kcZNzeUcWhRxgEAAAD/o4ybG8o4tCjjAAAAgP9Rxs0NZRxalHEAAADA/yjj5oYyDi3KOAAAAOB/lHFzQxmHFmUcAAAA8D/KuLmhjEOLMg4AAAD4H2Xc3FDGoUUZBwAAAPyPMm5uKOPQoowDAAAA/kcZNzeUcWhRxgEAAAD/o4ybG8o4tCjjAAAAgP9Rxs0NZRxalHEAAADA/yjj5oYyDi3KOAAAAOB/lHFzQxmHFmUcAAAA8D/KuLmhjEOLMg4AAAD4H2Xc3FDGoUUZBwAAAPyPMm5uKOPQoowDAAAA/kcZNzeUcWhRxgEAAAD/o4ybG8o4tCjjAAAAgP9Rxs0NZRxalHEAAADA/yjj5oYyDi3KOAAAAOB/lHFzQxmHFmUcAAAA8D/KuLmhjEOLMg4AAAD4H2Xc3FDGoUUZBwAAAPyPMm5uKOPQoowDAAAA/kcZNzeUcWhRxgEAAAD/o4ybG8o4tCjjAAAAgP9Rxs0NZRxalHEAAADA/yjj5oYyDi3KOAAAAOB/lHFzQxmHFmUcAAAA8D/KuLmhjEOLMg4AAAD4H2Xc3FDGoUUZBwAAAPyPMm5uKOPQoowDAAAA/kcZNzeUcWhRxgEAAAD/o4ybG8o4tCjjAAAAgP9Rxs0NZRxalHEAAADA/yjj5oYyDi3KOAAAAOB/lHFzQxmHFmUcAAAA8D/KuLmhjEOLMg4AAAD4H2Xc3FDGoUUZBwAAAPyPMm5uKOPQoowDAAAA/kcZNzeUcWhRxgEAAAD/o4ybG8o4tCjjAAAAgP9Rxs0NZRxalHEAAADA/yjj5oYyDi3KOAAAAOB/lHFzQxmHFmUcAAAA8D/KuLmhjEOLMg4AAAD4H2Xc3FDGoUUZBwAAAPyPMm5uKOPQoowDAAAA/kcZNzeU8VL7KfmHiQn5+epTZ0EDDndkbXVO4tnHmZiYksSNlGweZJwbKzmUnbVVmYurMRMylbghqc0DOXLUzpqszsWtMRNTCbmR2pQjf1QNKOMAAACA/1HGzQ1lvFBmT5KxkAQCARlObDoL65PZmJWRnoD1GEUJ9sl4ck9frjMbMjvSUz4mEJS+8aTs6QfJxuyI9JSNCUiwb1yS+kE1o4wDAAAA/kcZNzeUcdfhA5k7bxdxlYbKeDopY71qfLZEjyUk9XBXdrfWZOHykFOaB2R6vbQkpyU51uuU6DFJpB7K7u6WrC1cliGn1A9Mr5eV+HRyTHrVY2ZL/lgiJQ93d2VrbUEuDzmlfmBayn5UHSjjAAAAgP9Rxs0NZTxbc/fuJOT1vqBdYp3UX8YzcvuKXap7x5LZil0oIxuJsATVY5+bk21nqZK5fcUu1b1jkiweJJmNhISD6vc5J3PFg+SKVfp7Zax8kCTC9r/lXNGg+lDGAQAAAP+jjJubLi/jT+XG6Am7JGfTMxKXd1+z/3fdZTyzIjGrOA9I/L6zrFCuQA9L/qEzshKzi/OAflCu4Bf+PpmVmP07D8RF/6Ocgj+ckAaO71so4wAAAID/UcbNTZeX8U1JDGdL+KlRia9uyWF2yUqswTK+Pi39qgD3TkrKWVRsXxaj9mNH5t3J4dZlul8t65VJ/SDZX4xaYwKRecmNmu63lvVWHiRRNSYQkdyPqhNlHAAAAPA/yri56fIyvi97O8UzljdaxjPJMbs0VzkaXVaiM0kZs0pz4dHyEmUlPyPJsaN+x6NL/lEo4wAAAID/UcbNDd8ZL9FoGd9MDFvjArEVZ0m5svtsJmRY/XcgJhVHld3HPpqvHqfyj6rlPiLXr1+XS5cuaXP27FnrCQIAAADAvyjj5oYyXqKbyvjQ0JD1h9Hl9OnT1hMEAAAAgH9Rxs0NZbwEZZwyDgAAAJiCMm5uKOMlGi3jW7Nha1xdZXxrVsLqv+sq41syG7Z/x+OW8cPDQ0mn09rEYjHrCQIAAADAvyjj5oYyXqLRMp4daI2rNoFbatK+TNngzIazZEViaky1CdxSk/ZlygZnJDfqyN8xJZPWZdQGJfej6sQEbgAAAID/UcbNDWW8RMNlfGNGBlVpDo7LLWdRsacyH7EfO7q47yzbkJlBtSwo4/pB8nQ+Yo0JRBclN2pm0FoWrDxIImpMICq5H1UnyjgAAADgf5Rxc0MZL9FwGc8dje6VK7cLL5bmqHDtb/doee+V20WXWLPprk2e5R4t770i+h9Vfm3yelHGAQAAAP+jjJsbyniJxsu4yP34gDU2GE7IRlFJTmcfN2TfNrqUO8JtuR+XAVWcg2FJFA+S9EpMQtZto7JUPEjiA+r3DEo4sVFc4tMrEgvZt40WD6oLZRwAAADwP8q4uaGMlzi6jN+X6xMTMpHN9fvOIlcmJZNWEc6W7r5X5ercsizfSMiloR5rmSrcs2UPm5HUpF3UA8E+efXqnCwv35DEpSHpUctU4S4flP1Rk3ZRz97e9+pVmVtelhuJSzLU4/z88GzF767XgjIOAAAA+B9l3NxQxkscXcbdSdcqzFSevi1X3fJdkGDf6zJfcuQ7Ly23r7rluyDZcv76fMmR7wLp21dz5TufbDl/fb7kyHz9KOMAAACA/1HGzQ1lvMTO2rIsLy/LP21UOsV7R9aW/4Nc7K922bCMHDx7KKns4ywvr8ra1nM5dG6pJnPwTB6m7J+/urYlz2sbJM8epqwxy6trslXToKNRxgEAAAD/o4ybG8p4I9IL8lqgX6bXnf/uQJRxAAAAwP8o4+aGMl6v/74qE6GghEaXZNtZ1Iko4wAAAID/UcbNDWW8bhl5srlV02nnJqOMAwAAAP5HGTc3lHFoUcYBAAAA/6OMmxvKOLQo4wAAAID/UcbNDWUcWpRxAAAAwP8o4+aGMg4tyjgAAADgf5Rxc0MZhxZlHAAAAPA/yri5oYxDizIOAAAA+B9l3NxQxqFFGQcAAAD8jzJubijj0KKMAwAAAP5HGTc3lHFoUcYBAAAA/6OMmxvKOLQo4wAAAID/UcbNDWUcWpRxAAAAwP8o4+aGMg4tyjgAAADgf5Rxc0MZhxZlHAAAAPA/yri5oYxDizIOAAAA+B9l3NxQxqFFGQcAAAD8jzJubijj0KKMAwAAAP5HGTc3lHFoUcYBAAAA/6OMmxvKOLQo4wAAAID/UcbNDWUcWpRxAAAAwP8o4+aGMg4tyjgAAADgf5Rxc0MZhxZlHAAAAPA/yri5oYxDizIOAAAA+B9l3NxQxqFFGQcAAAD8jzJubijj0KKMAwAAAP5HGTc3lHFoUcYBAAAA/6OMmxvKOLQo4wAAAID/UcbNDWUcWpRxAAAAwP8o4+aGMg4tyjgAAADgf5Rxc0MZhxZlHAAAAPA/yri5oYxDizIOAAAA+B9l3NxQxqFFGQcAAAD8jzJubijj0KKMAwAAAP5HGTc3lHFoUcYBAAAA/6OMmxvKOLQo4wAAAID/UcbNDWUcWpRxAAAAwP8o4+aGMg4tyjgAAADgf5Rxc0MZhxZlHAAAAPA/yri5oYxDizIOAAAA+B9l3NxQxqFFGQcAAAD8jzJubijj0KKMAwAAAP5HGTc3lHFoUcYBAAAA/6OMmxvKOLQo4wAAAID/UcbNDWUcWpRxAAAAwP8o4+aGMg4tyjgAAADgf5Rxc0MZhxZlHAAAAPA/yri5oYxDizIOAAAA+B9l3NxQxqFFGQcAAAD8jzJubijj0KKMAwAAAP5HGTc3lHFoUcYBAAAA/6OMmxvKOLQo4wAAAID/UcbNDWUcWpRxAAAAwP8o4+aGMg4tyjgAAADgf5Rxc0MZhxZlHAAAAPA/yri5oYxDizIOAAAA+B9l3NxQxqFFGQcAAAD8jzJubijj0KKMAwAAAP5HGTc3lHFoUcYBAAAA/6OMmxvKOLQo4wAAAID/UcbNDWUcWpRxAAAAwP8o4+aGMg4tyjgAAADgf5Rxc0MZhxZlHAAAAPA/yri5oYxDizIOAAAA+B9l3NxQxqFFGQcAAAD8jzJubijj0KKMAwAAAP5HGTc3lHFoUcYBAAAA/6OMmxvKOLRUGf/Wt74lP/nJT8gxAwAAAHiFMm5uKOPQUmX8G9/4hvZJQ+oLAAAA4BXKuLmhjEOLMt68AAAAAF6hjJsbyji0KOPNCwAAAOAVyri5oYxDizLevAAAAABeoYybG8o4tCjjzQsAAADgFcq4uaGMQ4sy3rwAAAAAXqGMmxvKOLQo480LAAAA4BXKuLmhjEOLMt68AAAAAF6hjJsbyji0KOPNCwAAAOAVyri5oYxDizLevAAAAABeoYybG8o4tCjjzQsAAADgFcq4uaGMN9nT1Z/LxMRElVyX+859ix3KztqqzMXt+00lbkhq80Ayzq2VHO6syepc3H7sqYTcSG3KwVGDakAZb14AAAAAr1DGzQ1lvKkykhwLSCBQLTFZce6dk9mQ2ZEezX2D0jeelD1tuc7IxuyI9JSNCUiwb1yS+kE1o4w3LwAAAIBXKOPmhjLeVBsyM6gKcb9c/A/Lsrysy5rsOPe2pbMFvtcp0WOSSD2U3d0tWVu4LEM9drkemF4vO0KeTo5JryrfwT4ZS6Tk4e6ubK0tyOUhp9QPTMv6Mfo4Zbx5AQAAALxCGTc3lPFm2l+UqFWQx+WWs+gomdtX7FLdOybJtLPQkdlISDioCvk5mdt2FiqZ23KlVy3vlbHyQZIIB61Cfq5oUH0o480LAAAA4BXKuLmhjDfT+rT0q2IdnpUtZ1F1GVmJ2cV5IK77JnlGbl+xj5oPJzadZdmlKzEJqp8zENd+/zxX8IcTkh9VH8p48wIAAAB4hTJubijjTfR0PmIV597JlMjhlqTcidXicxUmY1uX6X77CLcaorO/GLUeMxCZl6fOsvXp/vzP0XGP0AciMu8OqhNlvHkBAAAAvEIZNzeU8Sa6NW4f5T47MSUjzve98wlK3+vzslHYyDNJGbNuG5aCA9/F3KPtvZNiV+/8JHGFR8uLHV3yj0IZb14AAAAAr1DGzQ1lvGm2ZDZsl+RAoEeGLi/I2tau7O4+lNXEmJyxvvsdkGBkXnLf5N5MyLB1f80M666y+2xKYth+rFjlQTXcR+TTTz+VDz74QJtIJEIZb1IAAAAAr1DGzQ1lvGlWJGaV5qCEExtlp6TnJ2MLyujSvr2wzWV8aGjI+sPocvr0acp4kwIAAAB4hTJubijjzZI5kGfqkmSph1Iyv7kjPxlbILooVh2njHdFAAAAAK9Qxs0NZbyFMskxu4y7s5xvzUq47jKePx3+uGX80aNH1h9Hl7feeosy3qQAAAAAXqGMmxvKeCutxIrLeLZe26e2V5nALTVpX6ZscEY2nEUrMbtoV57ALSWT1nXIB2XGHVQnJnBrXgAAAACvUMbNDWW8SZ6u/lwmomfl5Fs3cpcgK7U1G7bLeO4yZRsyM6hKc1DGb1kLyriXS8ud2p61MTNoLQtWHiQRNSYQlUV3UJ0o480LAAAA4BXKuLmhjDfLrXEJqgIcHBV3frZi2zJ3ThXk4iPaqUn7e+S9V25rrkO+L4tRe0yk8ILh7tHy3ityu3yQ9trk9aKMNy8AAACAVyjj5oYy3iyZlEyG7OIciq2UTOJ2KA9mwk5Zj8pi4Y334zJgLQ9Lougi5CLplZiErNtKC/59iQ+on6WZuT29IjHr9yiYtb0BlPHmBQAAwO9+/etfW6WOmJdf/vKX2n1Q4v9QxpsoV56z6Rm6JIkby7J8IyE/fbXPLuKBkMRWSudaz0hqMmSNCQT75NWrc7K8fEMSl4akxxqTLdyz5d8Nz6QmnZ8VlL5Xr8rc8rLcSFySoR775wfDs8730htDGW9eAAAA/O7q1ava/Rji//zkJz/RLif+D2W8ydJ3E/J6X9Au1wUJ9r0uibv6i55lR8ntq275Lki2nL8+X37Nclf69tVc+c4nW85fn5eSg+x1o4w3LwAAAH5HGTc3lHFzQxn3xKE831qT1eVlWV5elbWt59klR8scPJOHKTVmWVbXtuR5bYPk2cOUNWZ5dU22ahp0NMp48wIAAOB3lHFzQxk3N5RxaFHGmxcArbe3tycPHz4kBkb97QC0HmXc3FDGzQ1lHFqU8eYFQOt98skn2tcj8X/UTiWA1qOMmxvKuLmhjEOLMt68AGg9yri5oYwD7UEZNzeUcXNDGYcWZbx5AdB6lHFzQxkH2oMybm4o4+aGMg4tynjzAqD1KOPmhjIOtAdl3NxQxs0NZRxalPHmBUDrUcbNDWUcaA/KuLmhjJsbyji0KOPNC4DWo4ybG8o40B6UcXNDGTc3lHFoUcabFwCtRxk3N5RxoD0o4+aGMm5uKOPQoow3LwBajzJubijjQHtQxs0NZdzcUMahRRlvXgC0HmXc3FDGzXbu3DliaC5duqR9TRL/hzJubijj0KKMNy8AWo8ybm4o42bT/U2JGRkbG9MuJ/4PZdzcUMahRRlvXgC0HmXc3FDGzab7mxIzQhk3N5Rxc0MZhxZlvHkB0HqUcXNDGTeb7m9KzAhl3NxQxs0NZRxalPHmBUDrUcbNDWXcbLq/KTEjlHFzQxk3N5RxaFHGmxcArUcZNzeUcbPp/qbEjFDGzQ1l3NxQxqFFGW9eALQeZdzcUMbNpvubEjNCGTc3lHFzQxmHFmW8eQHQepRxc0MZN5vub0rMCGXc3FDGzQ1lHFqU8eYFQOtRxs0NZdxsur8pMSOUcXNDGTc3lHFoUcabFwCtRxk3N5Rxs+n+psSMUMbNDWXc3FDGoUUZb14AtB5l3NxQxs2m+5sSM0IZNzeUcXNDGYcWZbx5AdB6lHFzQxk3m+5vSswIZdzcUMbNDWUcWpTx5gVA61HGzc3Fixfl97//PTE0ur8pMSOUcXNDGTc3lHFoUcabFwCtRxk3N2rHRLecEOJtKOPmhjJubijj0KKMNy97e3vE0MBclHFzQxknpD2hjJsbyri5oYxDizJOSEgeP37svCJgGsq4uaGME9KeUMbNDWXc3FDGoUUZJ4QybjLKuLmhjBPSnlDGzQ1l3NxQxqFFGSeEMm4yyri5oYwT0p5Qxs0NZdzcUMahRRknhDJuMsq4uaGME9KeUMbNDWXc3FDGoUUZJ4QybjLKuLmhjBPSnlDGzQ1l3NxQxqFFGSeEMm4yyri5oYwT0p5Qxs0NZdzcUMahRRknhDJuMsq4uaGME9KeUMbNDWXc3FDGoUUZJ4QybjLKuLmhjBPSnlDGzQ1l3NxQxqFFGSckJOvr6/L73/+eGJiFhQXt35T4P5RxQtoTyri5oYybG8o4tCjjhFAKTA47JuaG1x0h7Qll3NzwnmduKOPQoowTQikwOeyYmBted4S0J5Rxc8N7nrmhjEOLMk4IpcDksGNibnjdEdKeUMbNDe955oYyDi3KOCGUApPDjom54XVHSHtCGTc3vOeZG8o4tCjjhFAKTA47JuaG1x0h7Qll3NzwnmduKOPQoowTQikwOeyYmBted4S0J5Rxc8N7nrmhjEOLMk4IpcDksGNibnjdEdKeUMbNDe955oYyDi3KOCGUApPDjom54XVHSHtCGTc3vOeZG8o4tCjjhFAKTA47JuaG1x0h7Qll3NzwnmduKOPQoowTQikwOeyYmBted4S0J5Rxc8N7nrmhjEOLMk4IpcDksGNibnjdEdKeUMbNDe955oYyDi3KOCGUApPDjom54XVHSHtCGTc3vOeZG8o4tCjjhFAKTA47JuaG1x0h7Qll3NzwnmduKOPQoowTQikwOeyYmBted4S0J5Rxc8N7nrmhjEOLMk4IpcDksGNibnjdEdKeUMbNDe955oYyDi3KOCGUApPDjom54XVHSHtCGTc3vOeZG8o4tCjjhFAKTA47JuaG1x0h7Qll3NzwnmduKOPQoowTQikwOeyYmBted4S0J5Rxc8N7nrmhjEOLMk4IpcDksGNibnjdEdKeUMbNDe955oYyDi3KOCGUApPDjom54XVHSHtCGTc3vOeZG8o4tCjjhFAKTA47JuaG1x0h7Qll3NzwnmduKOPQoowTQikwOeyYmBted4S0J5Rxc8N7nrmhjEOLMk4IpcDksGNibnjdEdKeUMbNDe955oYyDi3KOCGUApPDjom54XVHSHtCGTc3vOeZG8o4tCjjhFAKTA47JuaG1x0h7Qll3NzwnmduKOPQoowTQikwOeyYmBted4S0J5Rxc8N7nrmhjEOLMk4IpcDksGNibnjdEdKeUMbNDe955oYyDi3KOCGUApPDjom54XVHSHtCGTc3vOeZG8o4tCjjhFAKTA47JuaG1x0h7Qll3NzwnmduKOPQoowTQikwOeyYmBted4S0J5Rxc8N7nrmhjEOLMk4IpcDksGNibnjdEdKeUMbNDe955oYyDi3KOCGUApPDjom54XVHSHtCGTc3vOeZG8o4tCjjhFAKTA47JuaG1x0h7Qll3NzwnmduKOPQoowTQikwOeyYmBted4S0J5Rxc8N7nrmhjEOLMk4IpcDksGNibnjdEdKeUMbNDe955oYyDi3KOCGUApPDjom54XVHSHtCGTc3vOeZG8o4tCjjhFAKTA47JuaG1x0h7Qll3NzwnmduKOPQoowTQikwOeyYmBted4S0J5Rxc8N7nrmhjEOLMk4IpcDksGNibnjdEdKeUMbNDe955oYyDi3KOCGUApPDjom54XVHSHtCGTc3vOeZG8o4tCjjhFAKTA47JuaG1x0h7Qll3NzwnmduKOPQoowTQikwOeyYmBted4S0J5Rxc8N7nrmhjEOLMk4IpcDksGNibnjdEdKeUMbNDe955oYyDi3KOCGUApPDjom54XVHSHtCGTc3vOeZG8o4tCjjhFAKTA47JuaG1x0h7Qll3NzwnmduKOPQoowTQikwOeyYmBted4S0J5Rxc8N7nrmhjEOLMk4IpcDksGNibnjdEdKeUMbNDe955oYybrrMgTx7mJLl5WVZXl2TreeHzg3HQxknhFJgctgxMTe87ghpTyjj5ob3PHNDGTdY+vZVGeoJSCBQmKD0vT4vGxnnTg2ijBNCKTA57JiYG153hLQnlHFzw3ueuaGMGyqzHpczQbt8n7kQl7nlZbmRuJQr58HIvGw7920EZZwQSoHJYcfE3PC6I6Q9oYybG97zzA1l3Ej3JT5gF/FwYkOKDoKnVyQWsm8bXdp3FtaPMk4IpcDksGNibnjdEdKeUMbNDe955oYybqLUpPSqU9J7r8htzeno+0ujElS3R+blqbOsXpRxQigFJocdE3PD646Q9oQybm54zzM3lHEDbcwM2qeij99ylpR4Oi8R6/vjUVls8OA4ZZwQSoHJYcfE3PC6I6Q9oYybG97zzA1l3EArMVW0AzKc2HSWlErJZK+6T79MrzuL6kQZJ4RSYHLYMTE3vO4IaU8o4+aG9zxzQxk3zqYkhu0yPpasNGV6/j6xFWeRhvrDfPrpp9r8+Mc/poyTrg+lwNywY2JueN0R0p5Qxs0N73nmhjJunFqKdm1lfGhoyPrD6HL69GnKOOn6UArMDTsm5obXHSHtCWXc3PCeZ24o48ZpXRlXTxAAAAAAgJko403VvDJe7TT1t956izIOAAAAAAajjDeZO4FbeHbLWVJqXab71X2ON4EbZRwAAAAAzEUZb7L16X6rjPdOppwlJfYXJZq9PRCIyHyDFxqnjAMAAACA2SjjTZZZiUlQle2BuNx3lhXK3T6ckEoXPzsKZRwAAAAAzEYZb7bMbbliXUe8V8aSaWehI7MhiXDQOnJ+bm7bWVg/yjgAAAAAmI0y7oH0YtQ++h3sk9fjq/Jwd1e21hbk8lCPVcQDoUlJVboMeQ0o4wAAAABgNsq4Jw7lQWJEelTxLkmwb1ySe8do4lmUcQAAAAAwG2XcQ4c7a7I6F5eJiQmZmErIjdSmHByvh1so4wAAAABgNsq4gSjjAAAAAGA2yriBKOMAAAAAYDbKuIEo4wAAAABgNsq4gSjjAAAAAGA2yriBVBn/sz/7M7l06RIhhBBCCCGEEAMzNDREGTfNxx9/LCMjI12T06dPy6lTp6zobieEEOJtfvjDH+a2w2rHQXcfQggh3oZ94s7N119/7TS9xlHG4Ql1Sr76xEidDQAAaL1Hjx5Z22GVqakpZykAoJXOnz+f2xan02lnKWCjjMMTlHEAaC/KOAC0H2Uc1VDG4QnKOAC0F2UcANqPMo5qKOPwBGUcANqLMg4A7UcZRzWUcXiCMg4A7UUZB4D2o4yjGso4PEEZB4D2oowDQPtRxlENZRyeUJfRUUX8xRdfdJYAAFppe3vb2g6rUMYBoD3UdandbTFlHKUo4wAAAAAAtBhlHAAAAACAFqOMAwAAAADQYpRxAAAAAABajDIOAAAAAECLUcZRs8Pnu7K7W1ueHWScUaUO5bl1n2dS8S4AgBpl5OCZs+19fugsq8Hhc3vMs4PsIwAAjqWhbWp++13P5hudhTKOmq3EAhII1JbhxKYzypF5IsnLYTkRLLxfj5waTchdrvIAAHU6lK2blyV8IliwTQ1Iz6mIxD/bq7gzmHmSlMvhExIsGBPoOSWjibvCphgA6nO4dbPCNvWO7FVs5Wm5mxiVUz0FYwJBORG+LMknfDzabSjjqNnnUyfl5MkqCfU4G5SQjN/ad0Yp27I0GrJv6wnJ2eiETFyM5DZCwb7LUnR3AEAVGdlIhJ2dP7UDF5WJiQmJ5nYIe2RkruQDUWV7SUZD9na3J3RWotkxFyOnpMd5nL7Lt4RNMQDUJr0yLn3uQaZsAY9cLN6/7RmZlY2ybp2R9fgZe1sdPCEDkYvZ7Xc0/8Fqz4joNt/oXJRxNEdmQxJhtSEJSjixUXRUZns+Ym90QjFJFn5MePhAZqwxAQlNpioeyQEAFNiek3NqmxoISSxZeBQ8I08WotJr7eSNylJRs96W+YizvY0li47YHD6YkbC1QxmSyRRbYgA40v6KxHrVdjO7TR1dlKID2gX7twPT60X7t5nUpISsbXRYZh4UnJue2ZNkzD5wFYzMZ7fY6BaUcTRBRlKTzgYkPCvFH+jdl/iA2lgFZbR4z9Dm7lSW7TgCAHSezkes7W0guqg5kr0hM4P2DmJsxVmk3I/LQJVt7fbcOXsbPrrE0XEAOML+YtTeDvdekdu6zzDTC/Ja2TZ3X5ZGnZIev+8sK5C5LVesgj8gupvRmSjjOLb8p3wRmS/9KG9rVsLqtsCYJLUHXLZkNqxuD2Z3HDkiAwBH2UwM2zuBY0nNGUVPZT6itqkBicw/dZapTXG4ypgsd1sdjAmbYgCo7ta4Xap7J1POklLutjgo47ecRXJLxq2zkAZlZsNZVMJ93LK5l9CxKOM4nsyGzAzbO37aDcdKzLotMJwoOWKe5254BittmQAAealJ+1T03jFJls66ll6UqLWzV3xkxZ2As/IO3tE7iQAA29HbVM19NhMyrLbdgZgUnrhU6MgPTtFxKOM4lvRi1Pk++KTovmqY26hoT6e05Y7yFJ1TCQDQS2d38pyvBp0Zl7nUQ+vSOA9X4/J6n/pwMyh94ysFs6O7ZyAFJLpYcUssCeeDVTbFAFDd+nS/tb2sfGQ8/5Wh3H1ujdv7zP3Tsm4vKVfDQSx0Fso4GpdZl2nn++CRsvPTbbUUbco4ANTrUB7+w6tyQm07i/KKXPjoYfbWQrUUbco4ANQqc/uKM1lmVBY114XMrE/b83SouBvVWoo2ZbzrUMbRsP2lUfsTvkqTV2RRxgGgyTJPZHGsr+TSOBMSPRtyLlPWI0NXbxccGaeMA0BzbcqsM2N6sG9M5tZ27A9BMweyufrvZaQnuzxo304ZRzWUcTRoXxaj9o6bdkZIB2UcAJopf/WKsstFZh1uLTjXEg9KeNbdlaOMA0DTpVdk3PpqkL3tLEzo/LwkZ+z92/5p56R0yjg0KONozNN5iVgbnOqXX8gkx+yNSmRe8vP6FtuYGbTuU/l7NwAAy/6SjFoTrfXLu3f1pyTlTp/snRR7q5qR5JgaUzzDejH3+429wqYYAGqU2ZN7C3GJnj0pJ0+elMHIT2XuC/soufu98twEbhszMli0bS5Xy34zOgtlHA3JXV/xqE/u3Fl/K05Wkd9JDM9uOcsAAFo1zMab3ZuTMes+YXE3q6nJXms7mztCU0ozBgDQKM2lzXIHsqJSaS5N9wBVMH89NHQ4yjga4l6OrOKOnWt/UaLWhueczGnneEvJZK+6vV+OeigA6Hru9cCr7Mzld/gi4h4Iz32Aem5O9Jvioz44BQAUyhw8k93nxdNl5mzPybmybfW6TPerZb1yRTvZklvgq135Ap2GMo4GuBuTgk/7KtqXpVG7uA9k23bppiedHLN3AAfiUuVsdwCA5b7EB+ydteGZDc11aDOy4XxPsWi7mju9fUCm18u2xJIcs4+cV5sDBADgyH2A+a6Uf2Mof/nJ3thK0aV978cHrOXB6GLBJJu2zMaMfeZTcFSW6OJdgzKO+uWOdtd2OmNu4xIIyfnEF7KjPkRUs03eHJcz1s5hUKK660IAAMqkV2IScrep8VXZPLD3BDMHm7IaP5+7bfxW4d5cQUkPnZeE851GNebm+BlnZnb9JXoAAKXyH4yGRhfkoXOE/PD5w4JtakTKrvybTsqYdUZoUM6M33S234ey80VCzluTb+oPXqFzUcZRv1q+s1gkI08WR50dxNIEJTx9t+zTQQBAJdliPe+Wbk2CffL6vOaoubok2qgzE3vZmLBM32VLDAC1ymzMWpcw025Te0Yk8UB/Cnv67rSErYNR5QmNLsoTmnhXoYyjfp9PWTNGnjw/V9dlFw63ViUxFZWzauzJQYlcjMvCvT0+/QOABhzurMlC/KJEBu1ZfE+ejcpEfEHulVzurNihbK0mZCp61h4zGJGLR44BAGgdbslqYio3m7raDk8lVmWrwlfJXZm9e0Xb77PRKUmsbtnXKkdXoYwDAAAAANBilHEAAAAAAFqMMg4AAAAAQItRxgEAAAAAaDHKOAAAAAAALUYZBwAAAACgxSjjAAAAAAC0GGUcAAAAAIAWo4wDAAAAANBilHEAAAAAAFqMMg4AAAAAQEuJ/P8R+NkqqpkDigAAAABJRU5ErkJggg==;" vertex="1" parent="1">
          <mxGeometry x="90" y="-1110" width="678.41" height="450" as="geometry" />
        </mxCell>
        <mxCell id="mQCYfwzK4HOE46UFKc1K-2" value="&lt;font style=&quot;font-size: 18px;&quot;&gt;Sanat&lt;/font&gt;" style="text;html=1;strokeColor=none;fillColor=none;align=center;verticalAlign=middle;whiteSpace=wrap;rounded=0;horizontal=0;" vertex="1" parent="1">
          <mxGeometry x="30" y="-910" width="60" height="30" as="geometry" />
        </mxCell>
        <mxCell id="mQCYfwzK4HOE46UFKc1K-3" value="&lt;div&gt;&lt;font style=&quot;font-size: 18px;&quot;&gt;Valintafrekvenssi / N&lt;br&gt;&lt;/font&gt;&lt;/div&gt;" style="text;html=1;strokeColor=none;fillColor=none;align=center;verticalAlign=middle;whiteSpace=wrap;rounded=0;" vertex="1" parent="1">
          <mxGeometry x="370" y="-650" width="180" height="30" as="geometry" />
        </mxCell>
      </root>
    </mxGraphModel>
  </diagram>
</mxfile>
